<?xml version="1.0" standalone="no"?><!DOCTYPE svg PUBLIC "-//W3C//DTD SVG 1.1//EN" "http://www.w3.org/Graphics/SVG/1.1/DTD/svg11.dtd"><svg t="1609046256161" class="icon" viewBox="0 0 1024 1024" version="1.1" xmlns="http://www.w3.org/2000/svg" p-id="2505" xmlns:xlink="http://www.w3.org/1999/xlink" width="200" height="200"><defs><style type="text/css"></style></defs><path d="M882.233 749.454L526.905 950.386V793.94l221.411-121.856 133.917 77.37z m24.348-22.073V307.086L776.647 382.18v270.222l129.934 74.98z m-766.18 22.073L495.73 950.5V793.94L274.204 672.085l-133.802 77.37z m-24.348-22.073V307.086l129.935 75.094v270.222l-129.935 74.98zM131.3 279.78L495.73 73.614V224.94L262.144 353.394l-1.82 1.024c0 0.114-129.024-74.638-129.024-74.638z m760.035 0L526.905 73.728v151.324l233.472 128.342 1.82 1.024 129.138-74.638z" fill="#8ED6FB" p-id="2506"></path><path d="M495.73 758.215l-218.454-120.15V400.157l218.454 126.18v231.88z m31.175 0L745.358 638.18V400.156l-218.453 126.18v231.88zM291.954 372.622l219.25-120.49 219.25 120.49-219.137 126.635-219.363-126.635z" fill="#1C78C0" p-id="2507"></path></svg>